<svg width="66" height="66" viewBox="0 0 66 66" fill="none" xmlns="http://www.w3.org/2000/svg">
<g filter="url(#filter0_d_526_78564)">
<circle cx="32" cy="32" r="32" fill="#FFE4C8"/>
<circle cx="32" cy="32" r="31.5" stroke="#201B18"/>
</g>
<g clip-path="url(#clip0_526_78564)">
<path d="M38.5397 20.5734C38.1478 19.5868 37.6007 18.4602 36.5103 17.582C34.8715 16.2623 32.8579 15.8155 30.3548 16.216C27.4999 16.673 25.5028 18.3541 24.5797 21.0774C23.8315 23.2693 23.5591 25.5802 23.7788 27.8731C23.8656 28.7798 23.9379 29.7036 24.0078 30.5972C24.0895 31.6393 24.1739 32.7171 24.2818 33.7755C24.3759 34.6492 24.5376 35.5155 24.7656 36.3671C25.1372 37.7803 26.0595 38.7758 27.5071 39.3256C28.9909 39.906 30.5802 40.2107 32.1872 40.2226C33.0335 40.2227 33.877 40.1318 34.7013 39.9516C37.0102 39.448 38.4589 38.1986 39.0074 36.2381C39.2197 35.5251 39.3552 34.7939 39.412 34.0554C39.4924 32.7638 39.535 31.4502 39.5764 30.1785C39.5932 29.6607 39.6109 29.1428 39.6292 28.6251C39.6304 28.5979 39.6216 28.571 39.6046 28.549C39.5876 28.5269 39.5631 28.5108 39.5353 28.5033C39.5353 28.3564 39.5345 28.2094 39.533 28.0623C39.5305 27.6648 39.5279 27.2534 39.5377 26.8504C39.5955 24.4626 39.2691 22.4095 38.5397 20.5734ZM37.2607 28.2381L37.2598 29.2153C37.2598 29.2398 37.2676 29.2637 37.2823 29.2839C37.297 29.3043 37.3177 29.3198 37.342 29.3289C37.3128 29.7921 37.2851 30.2555 37.259 30.7188C37.1868 31.9612 37.1124 33.2459 36.9935 34.5046C36.9371 35.1022 36.729 35.7044 36.5277 36.2867L36.4816 36.4205C36.3017 36.9439 35.8981 37.3428 35.2477 37.642C34.1688 38.1385 32.9379 38.3304 31.5891 38.213C30.5731 38.1241 29.5408 37.8799 28.5713 37.6372C27.6195 37.3993 26.9855 36.7543 26.738 35.7727C26.5785 35.1894 26.4702 34.5948 26.4142 33.9949C26.2072 31.1529 25.9933 28.1015 25.8309 25.0449C25.7808 24.2203 25.8344 23.393 25.9906 22.5802C26.4977 20.0548 28.5573 18.2527 31.1156 18.0954C31.287 18.085 31.4609 18.0797 31.6359 18.0797C32.1642 18.0799 32.6914 18.1262 33.2107 18.218C34.6737 18.4783 35.6706 19.2859 36.0934 20.5531C36.5284 21.8544 36.8753 23.2095 37.1934 24.4857C37.2579 24.8129 37.2802 25.1462 37.2598 25.4784C37.258 25.5854 37.2561 25.6916 37.2569 25.7971C37.2627 26.6105 37.2617 27.438 37.2607 28.2381Z" fill="#FFA64D"/>
<path d="M24.7508 41.145C25.9184 42.0362 27.2766 42.498 28.5704 42.8643C29.1992 43.0427 29.8505 43.1754 30.4804 43.3044C30.7316 43.3558 30.9825 43.4072 31.2323 43.4613V46.0465L31.1933 46.0524C31.126 46.0647 31.058 46.0731 30.9897 46.078L30.8973 46.0824C29.4411 46.1515 27.9355 46.2229 26.4544 46.2877C26.0635 46.3047 25.6496 46.3867 25.5458 46.8643C25.4529 47.2925 25.6987 47.6442 26.1874 47.7811C26.505 47.8665 26.8339 47.9086 27.1642 47.9064H27.1798C27.9678 47.9034 28.7687 47.8936 29.5433 47.884C30.5128 47.8721 31.5157 47.8602 32.5004 47.8609C33.5821 47.862 34.6825 47.8784 35.7467 47.8944C36.4168 47.9042 37.086 47.9142 37.7558 47.9208C37.7785 47.9208 37.8017 47.9208 37.8252 47.9208C38.0515 47.9261 38.2775 47.9029 38.4971 47.8518C38.6956 47.7988 38.8691 47.6839 38.9892 47.5259C39.1092 47.3681 39.1686 47.1764 39.1577 46.9825C39.1109 46.5694 38.8785 46.2908 38.5033 46.1975C38.2422 46.1363 37.9743 46.105 37.7051 46.1045C36.8942 46.095 36.0834 46.0906 35.2726 46.0861C34.7415 46.0831 34.2109 46.0796 33.6805 46.0757C33.5607 46.0748 33.4403 46.0638 33.2998 46.0519L33.1874 46.042L33.0722 43.5296L33.5878 43.4798C33.9993 43.4403 34.3735 43.4044 34.7476 43.3658C37.3457 43.0979 39.4689 41.8837 41.0578 39.7567C42.2409 38.1733 42.8145 36.3001 42.9165 33.6835C42.9122 33.3868 42.8626 33.0923 42.769 32.8089C42.6341 32.3158 42.333 32.0427 41.9217 32.0397C41.7187 32.0306 41.518 32.0851 41.3514 32.1947C41.1847 32.3043 41.0615 32.463 41.0009 32.6456C40.8401 33.0901 40.7138 33.5452 40.6232 34.0068C40.5556 34.3609 40.5087 34.7249 40.4633 35.0775C40.3809 35.7178 40.2958 36.38 40.0827 36.9849C39.2535 39.3402 37.6233 40.7893 35.2374 41.2912C32.9498 41.7721 30.639 41.5939 28.172 40.7461C24.6719 39.5428 22.5598 36.4978 22.7914 32.9888L22.7967 32.9093C22.8342 32.5623 22.8296 32.2123 22.7829 31.8663C22.7475 31.7451 22.6845 31.6325 22.5981 31.5365C22.5117 31.4405 22.4042 31.3634 22.2829 31.3105C21.9844 31.1907 21.6715 31.3301 21.4863 31.6667C21.4307 31.766 21.3892 31.8719 21.3627 31.9813C21.1237 33.0196 20.8768 34.0932 21.1258 35.2289C21.6861 37.7751 22.8713 39.7107 24.7508 41.145Z" fill="#FFA64D"/>
</g>
<defs>
<filter id="filter0_d_526_78564" x="0" y="0" width="66" height="66" filterUnits="userSpaceOnUse" color-interpolation-filters="sRGB">
<feFlood flood-opacity="0" result="BackgroundImageFix"/>
<feColorMatrix in="SourceAlpha" type="matrix" values="0 0 0 0 0 0 0 0 0 0 0 0 0 0 0 0 0 0 127 0" result="hardAlpha"/>
<feOffset dx="2" dy="2"/>
<feComposite in2="hardAlpha" operator="out"/>
<feColorMatrix type="matrix" values="0 0 0 0 0.12549 0 0 0 0 0.105882 0 0 0 0 0.0941176 0 0 0 1 0"/>
<feBlend mode="normal" in2="BackgroundImageFix" result="effect1_dropShadow_526_78564"/>
<feBlend mode="normal" in="SourceGraphic" in2="effect1_dropShadow_526_78564" result="shape"/>
</filter>
<clipPath id="clip0_526_78564">
<rect width="22" height="32" fill="white" transform="translate(21 16)"/>
</clipPath>
</defs>
</svg>
