<svg width="64" height="64" viewBox="0 0 64 64" fill="none" xmlns="http://www.w3.org/2000/svg">
<path d="M57.9091 0H9.25732V64H57.9091V0Z" fill="#FF7224"/>
<path d="M33.5826 0H9.25732V64H33.5826V0Z" fill="#FF9755"/>
<path d="M12.4229 3.91837H6.09082V7.83675H12.4229V3.91837Z" fill="#C23700"/>
<path d="M12.4229 10.449H6.09082V14.3674H12.4229V10.449Z" fill="#C23700"/>
<path d="M12.4229 16.9796H6.09082V20.898H12.4229V16.9796Z" fill="#C23700"/>
<path d="M12.4229 23.5102H6.09082V27.4286H12.4229V23.5102Z" fill="#C23700"/>
<path d="M12.4229 30.0409H6.09082V33.9592H12.4229V30.0409Z" fill="#C23700"/>
<path d="M12.4229 36.5714H6.09082V40.4897H12.4229V36.5714Z" fill="#C23700"/>
<path d="M12.4229 43.102H6.09082V47.0204H12.4229V43.102Z" fill="#C23700"/>
<path d="M12.4229 49.6326H6.09082V53.551H12.4229V49.6326Z" fill="#C23700"/>
<path d="M12.4229 56.1632H6.09082V60.0816H12.4229V56.1632Z" fill="#C23700"/>
<path d="M33.5826 46.8898C41.806 46.8898 48.4724 40.2234 48.4724 32C48.4724 23.7766 41.806 17.1103 33.5826 17.1103C25.3592 17.1103 18.6929 23.7766 18.6929 32C18.6929 40.2234 25.3592 46.8898 33.5826 46.8898Z" fill="#FEDFB5"/>
<path d="M33.5831 17.1103C25.3597 17.1103 18.6934 23.7767 18.6934 32C18.6934 40.2232 25.3599 46.8898 33.5831 46.8898V17.1103Z" fill="#FFF1D8"/>
</svg>
