<svg width="64" height="64" viewBox="0 0 64 64" fill="none" xmlns="http://www.w3.org/2000/svg">
<g clip-path="url(#clip0_803_27242)">
<path d="M32 64C49.6731 64 64 49.6731 64 32C64 14.3269 49.6731 0 32 0C14.3269 0 0 14.3269 0 32C0 49.6731 14.3269 64 32 64Z" fill="#112E51"/>
<path d="M28.6343 38.6063L29.8093 31.9C29.2225 31.444 28.7932 30.8158 28.5816 30.1035C28.37 29.3911 28.3866 28.6304 28.6293 27.928C28.8719 27.2256 29.3283 26.6168 29.9345 26.187C30.5407 25.7571 31.2662 25.5278 32.0093 25.5313V18.0875H22.9343C22.0012 18.088 21.1065 18.4589 20.4467 19.1187C19.7869 19.7785 19.4161 20.6732 19.4156 21.6063V38.8438C19.4137 39.1684 19.4864 39.4891 19.6281 39.7812C20.3906 41.3188 23.3906 46.2625 31.9968 50.0625V38.8812C30.8702 38.8865 29.7451 38.7945 28.6343 38.6063ZM41.0531 18.0625H31.9968V25.5063C32.7363 25.5016 33.4588 25.7278 34.0637 26.1532C34.6685 26.5787 35.1256 27.1822 35.3712 27.8798C35.6168 28.5773 35.6386 29.3341 35.4337 30.0446C35.2288 30.7552 34.8074 31.3841 34.2281 31.8438L35.4031 38.5812C34.2791 38.7759 33.1406 38.8741 31.9999 38.875V50.0375C40.5937 46.2562 43.6062 41.2937 44.3687 39.7562C44.5103 39.4641 44.583 39.1434 44.5812 38.8187V21.5938C44.5845 21.1299 44.4956 20.67 44.3197 20.2409C44.1437 19.8117 43.8842 19.4217 43.5562 19.0938C42.8909 18.4326 41.991 18.0618 41.0531 18.0625Z" fill="white"/>
</g>
<defs>
<clipPath id="clip0_803_27242">
<rect width="64" height="64" fill="white"/>
</clipPath>
</defs>
</svg>
